# xmcd
#
# Track frame offsets:
#	150
#	22343
#	39422
#
# Disc length: 775 seconds
#
# Revision: 14
# Processed by: cddbd v1.5.2PL0 Copyright (c) Steve Scherf et al.
# Submitted via: EasyCDDAExtractor 2010.4.0.0
#
DISCID=20030503
DTITLE=ละอองฟอง - demo
DYEAR=2005
DGENRE=Pop
TTITLE0=เหงาจนชิน
TTITLE1=เธอจะเชื่อไหม
TTITLE2=เธอกับฉัน
EXTD=YEAR: 2005
EXTT0=
EXTT1=
EXTT2=
PLAYORDER=
